<svg width="310" height="360" viewBox="0 0 310 360" fill="none" xmlns="http://www.w3.org/2000/svg">
<path opacity="0.4" d="M7.2 57C38.5 25.5 81.9 6 129.9 6C225.4 6 302.9 83.5 302.9 179C302.9 274.5 225.4 352 129.9 352C82.1 352 38.9 332.6 7.6 301.3" stroke="white" stroke-width="2" stroke-miterlimit="10"/>
<path d="M7.2 57C38.5 25.5 81.9 6 129.9 6C225.4 6 302.9 83.5 302.9 179C302.9 274.5 225.4 352 129.9 352C82.1 352 38.9 332.6 7.6 301.3" stroke="white" stroke-width="2" stroke-miterlimit="10" stroke-dasharray="10 1000"/>
<path d="M7 52C3.7 52 1 54.7 1 58C1 61.3 3.7 64 7 64C10.3 64 13 61.3 13 58C13 54.7 10 52 7 52Z" fill="#0092FF"/>
<path d="M7 52C3.7 52 1 54.7 1 58C1 61.3 3.7 64 7 64C10.3 64 13 61.3 13 58C13 54.7 10 52 7 52Z" stroke="white" stroke-width="2" stroke-miterlimit="10"/>
<path d="M129.8 1C126.5 1 123.8 3.7 123.8 7C123.8 10.3 126.5 13 129.8 13C133.1 13 135.8 10.3 135.8 7C135.8 3.7 133.1 1 129.8 1Z" fill="#0092FF"/>
<path d="M129.8 1C126.5 1 123.8 3.7 123.8 7C123.8 10.3 126.5 13 129.8 13C133.1 13 135.8 10.3 135.8 7C135.8 3.7 133.1 1 129.8 1Z" stroke="white" stroke-width="2" stroke-miterlimit="10"/>
<path d="M255 57C251.7 57 249 59.7 249 63C249 66.3 251.7 69 255 69C258.3 69 261 66.3 261 63C261 59.7 258 57 255 57Z" fill="#0092FF"/>
<path d="M255 57C251.7 57 249 59.7 249 63C249 66.3 251.7 69 255 69C258.3 69 261 66.3 261 63C261 59.7 258 57 255 57Z" stroke="white" stroke-width="2" stroke-miterlimit="10"/>
<path d="M303 177C299.7 177 297 179.7 297 183C297 186.3 299.7 189 303 189C306.3 189 309 186.3 309 183C309 179.7 306 177 303 177Z" fill="#0092FF"/>
<path d="M303 177C299.7 177 297 179.7 297 183C297 186.3 299.7 189 303 189C306.3 189 309 186.3 309 183C309 179.7 306 177 303 177Z" stroke="white" stroke-width="2" stroke-miterlimit="10"/>
<path d="M258 287C254.7 287 252 289.7 252 293C252 296.3 254.7 299 258 299C261.3 299 264 296.3 264 293C264 289.7 263 287 258 287Z" fill="#0092FF"/>
<path d="M258 287C254.7 287 252 289.7 252 293C252 296.3 254.7 299 258 299C261.3 299 264 296.3 264 293C264 289.7 263 287 258 287Z" stroke="white" stroke-width="2" stroke-miterlimit="10"/>
<path d="M133 347C129.7 347 127 349.7 127 353C127 356.3 129.7 359 133 359C136.3 359 139 356.3 139 353C139 349.7 138 347 133 347Z" fill="#0092FF"/>
<path d="M133 347C129.7 347 127 349.7 127 353C127 356.3 129.7 359 133 359C136.3 359 139 356.3 139 353C139 349.7 138 347 133 347Z" stroke="white" stroke-width="2" stroke-miterlimit="10"/>
<path d="M11 296C7.7 296 5 298.7 5 302C5 305.3 7.7 308 11 308C14.3 308 17 305.3 17 302C17 298.7 15 296 11 296Z" fill="#0092FF"/>
<path d="M11 296C7.7 296 5 298.7 5 302C5 305.3 7.7 308 11 308C14.3 308 17 305.3 17 302C17 298.7 15 296 11 296Z" stroke="white" stroke-width="2" stroke-miterlimit="10"/>
</svg>
